<?xml version="1.0" encoding="UTF-8" standalone="no"?>
<svg
   xmlns:osb="http://www.openswatchbook.org/uri/2009/osb"
   xmlns:dc="http://purl.org/dc/elements/1.1/"
   xmlns:cc="http://creativecommons.org/ns#"
   xmlns:rdf="http://www.w3.org/1999/02/22-rdf-syntax-ns#"
   xmlns:svg="http://www.w3.org/2000/svg"
   xmlns="http://www.w3.org/2000/svg"
   xmlns:xlink="http://www.w3.org/1999/xlink"
   xmlns:sodipodi="http://sodipodi.sourceforge.net/DTD/sodipodi-0.dtd"
   xmlns:inkscape="http://www.inkscape.org/namespaces/inkscape"
   width="3000"
   height="3000"
   viewBox="0 0 793.74997 793.74998"
   version="1.1"
   id="svg433"
   inkscape:version="1.0.1 (3bc2e813f5, 2020-09-07)"
   sodipodi:docname="E-and-seconds.svg"
   inkscape:export-filename="C:\Users\Ondra\Music\E and seconds.png"
   inkscape:export-xdpi="96"
   inkscape:export-ydpi="96">
  <defs
     id="defs427">
    <linearGradient
       inkscape:collect="always"
       id="linearGradient1758"
       osb:paint="gradient">
      <stop
         style="stop-color:#5598b3;stop-opacity:1;"
         offset="0"
         id="stop1754" />
      <stop
         style="stop-color:#939dac;stop-opacity:0;"
         offset="1"
         id="stop1756" />
    </linearGradient>
    <inkscape:path-effect
       effect="bend_path"
       id="path-effect810"
       is_visible="true"
       lpeversion="1"
       bendpath="m 151.28697,419.55572 c 211.43258,-85.40427 411.186,-75.33002 602.87843,0"
       prop_scale="1"
       scale_y_rel="false"
       vertical="false"
       hide_knot="false"
       bendpath-nodetypes="cc" />
    <linearGradient
       inkscape:collect="always"
       xlink:href="#linearGradient1758"
       id="linearGradient1760"
       x1="411.82654"
       y1="806.05566"
       x2="410.63336"
       y2="477.30829"
       gradientUnits="userSpaceOnUse" />
    <filter
       inkscape:collect="always"
       style="color-interpolation-filters:sRGB"
       id="filter3733"
       x="-0.0072113462"
       width="1.0144227"
       y="-0.0071886895"
       height="1.0143774">
      <feGaussianBlur
         inkscape:collect="always"
         stdDeviation="2.4279165"
         id="feGaussianBlur3735" />
    </filter>
  </defs>
  <sodipodi:namedview
     id="base"
     pagecolor="#ffffff"
     bordercolor="#666666"
     borderopacity="1.0"
     inkscape:pageopacity="1"
     inkscape:pageshadow="2"
     inkscape:zoom="0.25"
     inkscape:cx="1015.7098"
     inkscape:cy="1465.0325"
     inkscape:document-units="px"
     inkscape:current-layer="layer2"
     inkscape:document-rotation="0"
     showgrid="false"
     units="px"
     fit-margin-top="0"
     fit-margin-left="0"
     fit-margin-right="0"
     fit-margin-bottom="0"
     inkscape:window-width="1842"
     inkscape:window-height="1051"
     inkscape:window-x="69"
     inkscape:window-y="-9"
     inkscape:window-maximized="1" />
  <metadata
     id="metadata430">
    <rdf:RDF>
      <cc:Work
         rdf:about="">
        <dc:format>image/svg+xml</dc:format>
        <dc:type
           rdf:resource="http://purl.org/dc/dcmitype/StillImage" />
        <dc:title></dc:title>
      </cc:Work>
    </rdf:RDF>
  </metadata>
  <g
     inkscape:groupmode="layer"
     id="layer2"
     inkscape:label="background">
    <rect
       style="fill:url(#linearGradient1760);fill-opacity:1;stroke:#0055d4;stroke-width:0.269785;filter:url(#filter3733)"
       id="rect1742"
       width="808.03217"
       height="810.57886"
       x="-5.1567726"
       y="-7.8026104" />
  </g>
  <g
     inkscape:label="Layer 1"
     inkscape:groupmode="layer"
     id="layer1"
     transform="translate(-55.851197,-81.430296)">
    <g
       id="g1738"
       transform="translate(5.1733243,28.924772)">
      <polyline
         class="Stem"
         fill="none"
         stroke="#000000"
         stroke-width="2.73"
         stroke-linejoin="bevel"
         points="723.719,507.061 723.719,425.906"
         id="polyline128"
         transform="matrix(3.5718749,0,0,3.5718749,-2066.6912,-1103.5812)"
         style="fill:#0066ff;stroke:#0055d4" />
      <path
         class="Note"
         d="m 519.69747,690.23586 c -6.36777,-11.73893 -19.82266,-18.10634 -36.15723,-18.10634 -12.01543,0 -25.13865,3.54375 -37.92912,10.29888 -23.36677,12.40313 -37.54177,33.27804 -37.54177,51.38451 0,4.92791 1.05206,9.9113 3.54375,14.50724 6.36769,11.68344 19.82285,17.71875 36.15724,17.71875 12.01578,0 25.13864,-3.15603 37.92947,-9.91157 23.36641,-12.40312 37.54141,-33.33325 37.54141,-51.38437 0,-4.98326 -1.05219,-9.91143 -3.54375,-14.5071"
         id="path142"
         style="fill:#0055d4;stroke:#0055d4;stroke-width:3.54375" />
      <g
         id="g808"
         inkscape:path-effect="#path-effect810">
        <path
           class="Accidental"
           d="m 667.97906,358.93791 c 1.03047,-9.68688 -2.73444,-20.35373 -16.10676,-23.65944 -13.10564,-3.23979 -22.42368,2.64722 -24.02193,3.81385 6.09361,-25.84627 12.21892,-51.68572 18.37588,-77.5183 0.4297,-1.92914 -0.93661,-3.74154 -3.25547,-4.24377 -1.12824,-0.24435 -2.2571,-0.48672 -3.38658,-0.7271 -2.32156,-0.49408 -4.31812,0.59621 -4.72441,2.53003 -9.74424,48.73629 -19.56255,97.45839 -29.45478,146.16616 -0.40936,1.93384 0.70614,3.67515 2.64829,4.09597 0.44709,0.0969 1.46934,0.0815 2.00363,-0.0386 1.04148,-0.28724 18.2082,-4.59689 35.17175,-15.84759 11.944,-7.98698 18.9267,-18.57421 21.62818,-28.44428 0.58403,-2.13381 0.86816,-4.10335 1.12229,-6.12612 m -19.92914,4.79936 c -0.92036,3.65779 -4.73152,14.34509 -13.14959,22.07355 -5.59526,5.13045 -15.63717,9.9223 -20.91132,12.46383 3.71238,-15.69362 7.43886,-31.3842 11.1794,-47.07175 0.99308,-2.05099 6.43641,-8.27825 16.79993,-5.80274 9.34506,2.23223 8.01275,10.66205 6.7439,15.70486 z"
           id="path114"
           style="fill:#2c2ca0;stroke-width:2.48062"
           inkscape:original-d="m 657.53915,389.22758 c -1.47292,-9.65125 -7.44181,-18.83724 -20.0776,-18.83724 -12.40313,0 -19.61247,7.6743 -20.85278,9.18599 l 1.00778,-79.65135 c 0,-1.97655 -1.47285,-3.44956 -3.48834,-3.44956 h -2.94576 c -2.01555,0 -3.4884,1.47301 -3.4884,3.44956 l 1.24024,149.10884 c 0,1.9768 1.47292,3.44979 3.4884,3.44979 0.46508,0 1.47285,-0.2322 1.97674,-0.4644 0.96903,-0.50355 17.09302,-8.44979 30.50392,-23.56605 9.41868,-10.69768 13.13962,-22.8295 13.13962,-33.02331 0,-2.20931 -0.23287,-4.18605 -0.50355,-6.20156 m -17.09323,9.68994 c 0,3.72094 -1.00764,15.11631 -7.2092,24.57368 -4.22482,6.43413 -12.63573,13.1395 -17.36437,16.86046 l 0.73642,-48.37214 c 0.50355,-2.24808 4.22476,-9.41874 14.14726,-9.41874 8.9536,0 9.68989,8.41097 9.68989,13.64356 v 2.71318" />
        <path
           class="Accidental"
           d="m 387.79893,338.55707 c 3.66009,-0.306 7.32277,-0.58622 10.98775,-0.84044 0.96736,-0.0671 1.93489,-0.13239 2.90256,-0.19586 2.08533,-0.13678 3.54808,-1.7376 3.42834,-3.7089 l -0.88748,-14.61098 c -0.11972,-1.97112 -1.80695,-3.34393 -3.95072,-3.20315 -5.29619,0.3478 -10.58706,0.74817 -15.87184,1.20049 -2.13889,0.18306 -3.64115,1.79753 -3.46336,3.7642 l 0.26848,2.96976 0.91694,10.14276 c -3.91098,4.50063 -7.75052,9.03018 -11.51924,13.58699 -0.26887,0.0287 -0.53772,0.0576 -0.80656,0.0866 -4.74496,-3.64272 -9.55417,-7.2427 -14.42604,-10.79896 l -1.63017,-13.06653 c -0.24441,-1.95909 -1.75934,-3.2562 -3.88907,-2.98207 -5.24057,0.67456 -10.47341,1.39941 -15.69774,2.17395 -2.16179,0.3205 -3.51685,2.0183 -3.21732,3.97086 l 2.2203,14.47338 c 0.29961,1.95305 2.06923,3.20879 4.17113,2.8967 0.86372,-0.12825 1.72766,-0.25509 2.59181,-0.38053 0.081,-0.0118 0.16197,-0.0235 0.24296,-0.0352 3.63231,-0.52614 7.26842,-1.02749 10.90805,-1.50381 4.76018,3.45232 9.46072,6.9465 14.10011,10.48161 l 0.0838,0.73099 c -3.70431,4.58248 -7.33809,9.19144 -10.90196,13.82522 -3.5243,0.46204 -7.04562,0.94843 -10.56367,1.45896 -0.0784,0.0114 -0.15688,0.0228 -0.23532,0.0342 -0.83697,0.12172 -1.67377,0.24481 -2.51037,0.36926 -2.03922,0.30334 -3.34032,1.75828 -3.03487,3.74938 l 2.21441,14.43503 c 0.29958,1.95286 1.977,3.22199 3.96036,2.92646 4.79312,-0.71419 9.5919,-1.38218 14.39559,-2.00336 1.9464,-0.25169 2.98653,-1.90137 2.74192,-3.86203 l -1.62536,-13.02801 c 3.67922,-4.45319 7.42721,-8.87961 11.24459,-13.27757 0.26516,-0.0286 0.53034,-0.0571 0.79553,-0.0854 4.5717,3.49673 9.0828,7.03383 13.53186,10.61039 l 0.93786,10.37414 0.0209,0.23144 0.22313,2.46821 c 0.17782,1.96692 1.80958,3.33441 3.76612,3.16681 4.83427,-0.41411 9.67178,-0.77977 14.51176,-1.09636 1.95909,-0.12815 3.32749,-1.72275 3.20775,-3.69412 l -0.88512,-14.57226 c -0.12208,-2.00995 -1.70039,-3.15678 -3.7173,-3.02468 -0.8568,0.0561 -1.7135,0.11372 -2.5701,0.1728 -0.079,0.005 -0.15808,0.0109 -0.23712,0.0164 -3.545,0.24564 -7.08823,0.51663 -10.6294,0.81274 -4.55675,-3.76382 -9.18004,-7.48631 -13.86826,-11.1665 l -0.0465,-0.46232 c 3.86433,-4.53975 7.8011,-9.05054 11.81096,-13.53063"
           id="path116"
           style="fill:#2c2ca0;stroke-width:2.48062"
           inkscape:original-d="m 391.39985,396.20434 h 10.4263 2.75199 c 1.97683,0 3.44958,-1.51165 3.44958,-3.48839 v -14.65131 c 0,-1.97656 -1.47276,-3.44956 -3.44958,-3.44956 h -14.65128 c -1.97658,0 -3.48826,1.473 -3.48826,3.44956 v 2.98469 10.19376 l -12.13173,12.40312 h -0.77517 l -12.40322,-12.40312 v -13.17845 c 0,-1.97656 -1.24038,-3.44956 -3.21705,-3.44956 h -14.61251 c -2.01551,0 -3.48837,1.473 -3.48837,3.44956 v 14.65131 c 0,1.97674 1.47286,3.48839 3.48837,3.48839 h 2.48063 0.23247 10.42637 l 12.13191,12.1318 v 0.73642 l -12.13191,12.40311 h -10.42637 -0.23247 -2.48063 c -2.01551,0 -3.48837,1.24025 -3.48837,3.25583 v 14.61249 c 0,1.97687 1.47286,3.4882 3.48837,3.4882 h 14.61247 c 1.97671,0 3.21705,-1.51133 3.21705,-3.4882 v -13.1396 l 12.40322,-11.89924 h 0.77517 l 12.13173,11.89924 v 10.4263 0.23261 2.48062 c 0,1.97681 1.51168,3.48827 3.48825,3.48827 h 14.65129 c 1.97682,0 3.44958,-1.51146 3.44958,-3.48827 v -14.61249 c 0,-2.0155 -1.47276,-3.25581 -3.44958,-3.25581 h -2.51931 -0.23247 -10.42631 L 378.99688,409.0725 v -0.46508 l 12.40313,-12.40312" />
        <path
           class="Accidental"
           d="m 195.41269,364.06733 c 1.45274,-0.7595 2.18368,-2.83033 1.73092,-4.23228 l -4.50564,-13.95126 c -0.60784,-1.88211 -2.63947,-2.77594 -4.70023,-2.10064 -0.17507,0.0574 -0.35012,0.1148 -0.52516,0.17227 -2.65984,1.48572 -5.30921,2.98362 -7.94803,4.49351 l -11.88283,-35.03927 c -2.49373,0.84671 -4.98338,1.70379 -7.46888,2.57118 l 12.65648,36.33033 c -7.10795,4.05336 -14.14061,8.19374 -21.09661,12.41744 l -12.3646,-32.71491 c -2.43806,0.9245 -4.87177,1.85901 -7.30107,2.80346 l 13.17539,34.0193 c -3.0267,1.88191 -6.03849,3.77959 -9.03527,5.69272 -1.39383,0.81073 -1.98067,2.92997 -1.42879,4.29579 l 0.18885,0.46738 5.38723,13.3325 -0.17424,-0.4312 c 0.74057,1.83277 2.73433,2.61353 4.7117,1.82273 0.24083,-0.0963 0.4817,-0.19252 0.72261,-0.28863 2.46033,-1.60746 4.93128,-3.20433 7.41279,-4.79039 l 14.78559,38.17687 c -2.80252,1.8053 -5.59115,3.62492 -8.36577,5.45852 -1.29481,0.76876 -1.79847,2.8525 -1.24649,4.21857 l 5.3873,13.33267 c 0.75505,1.86863 2.65007,2.69156 4.49169,1.95775 0.2243,-0.0894 0.44864,-0.17866 0.67302,-0.26784 2.27658,-1.53059 4.56297,-3.05158 6.85911,-4.56277 l 13.35736,34.48915 c 2.03307,-0.78439 4.0691,-1.56065 6.10798,-2.32871 l -13.59823,-35.97893 c 6.27732,-3.95762 12.6233,-7.84175 19.03655,-11.64867 l 11.50814,33.034 c 2.0769,-0.7225 4.15649,-1.43651 6.23866,-2.14195 l -11.7209,-34.56179 c 2.76916,-1.55301 5.54992,-3.09158 8.34216,-4.61543 1.35704,-0.68718 1.99919,-2.72943 1.54634,-4.13164 l -4.50557,-13.95105 c -0.6079,-1.88231 -2.53132,-2.81095 -4.45121,-2.18203 -0.16311,0.0534 -0.3262,0.1069 -0.48927,0.16043 -2.4697,1.40938 -4.92985,2.82997 -7.38039,4.26159 l -13.15337,-38.78574 c 2.99504,-1.61691 6.00263,-3.21801 9.02265,-4.80302 m -21.54686,59.38099 -14.55783,-38.51786 c 6.7818,-4.1554 13.6382,-8.23001 20.56784,-12.22012 l 13.47303,38.67424 c -6.56604,3.94347 -13.06082,7.96598 -19.48304,12.06374 z"
           id="path118"
           style="fill:#2c2ca0;stroke-width:2.48062"
           inkscape:original-d="m 209.07784,382.56078 c 1.51169,-0.27108 2.752,-2.01551 2.752,-3.48825 V 364.4212 c 0,-1.97656 -1.51169,-3.44954 -3.4885,-3.44954 h -0.50381 l -8.17837,1.74411 V 325.7391 h -6.93806 v 38.44968 l -22.09297,4.45743 v -34.96143 h -6.93801 v 36.47287 l -9.68994,1.97681 c -1.47288,0.23274 -2.71319,1.97682 -2.71319,3.44956 v 0.50409 14.37981 -0.46508 c 0,1.97674 1.47287,3.4496 3.48839,3.4496 h 0.73641 l 8.1783,-1.74417 v 40.9303 l -9.68993,2.01563 c -1.47288,0.23247 -2.71319,1.97656 -2.71319,3.44956 v 14.37998 c 0,2.01542 1.47288,3.48827 3.48838,3.48827 h 0.73644 l 8.1783,-1.7442 v 36.9766 h 6.93801 v -38.44959 l 22.09298,-4.45716 v 34.96106 h 6.93805 v -36.47279 l 9.41868,-1.7442 c 1.51169,-0.2322 2.75201,-1.9768 2.75201,-3.44979 v -14.65111 c 0,-1.97676 -1.51169,-3.44963 -3.4885,-3.44963 h -0.50382 l -8.17837,1.70543 v -40.9303 l 9.41868,-1.70555 m -38.44971,48.83741 v -41.16287 l 22.09298,-4.45737 v 40.93032 l -22.09298,4.68992" />
        <path
           class="Note"
           d="m 762.88364,389.8979 c -1.41288,-9.37458 -9.27584,-17.19885 -20.83589,-21.35084 -8.51466,-3.0582 -18.66819,-3.92683 -29.23384,-2.38613 -19.29302,2.85285 -33.36786,14.07806 -36.93496,26.24996 -0.97117,3.3139 -1.22589,6.874 -0.44167,10.4644 2.01499,9.12796 9.82172,15.89465 20.67645,19.44952 8.00134,2.62041 17.41303,3.5046 27.51478,2.11855 18.39333,-2.56246 33.37197,-12.38495 37.9877,-24.1343 1.27506,-3.24566 1.82028,-6.74159 1.26743,-10.41116 z"
           id="path144"
           style="fill:#d40000;stroke-width:2.48062"
           inkscape:original-d="m 751.68478,388.76246 c -4.45743,-8.21719 -13.87591,-12.67438 -25.31007,-12.67438 -8.41077,0 -17.59705,2.48063 -26.55032,7.20919 -16.3568,8.68224 -26.2793,23.29468 -26.2793,35.96913 0,3.4496 0.73642,6.93799 2.48062,10.15505 4.45743,8.17842 13.87605,12.40323 25.31007,12.40323 8.41104,0 17.59705,-2.20927 26.55066,-6.93812 16.35646,-8.68217 26.27896,-23.33336 26.27896,-35.96905 0,-3.48837 -0.73575,-6.938 -2.48062,-10.15505" />
        <path
           class="Note"
           d="m 504.83961,330.36119 c -4.16809,-8.52454 -14.12484,-13.6499 -26.53597,-14.10104 -5.63859,-0.20497 -11.62869,0.58386 -17.66426,2.33697 -3.74331,1.096 -7.49396,2.56014 -11.18216,4.38092 -17.71031,8.78713 -27.36907,23.87168 -26.87295,36.51822 0.13517,3.44568 1.02685,6.89536 2.90519,10.04558 4.79478,8.00125 14.27509,11.93906 25.59879,11.94528 2.844,0.002 5.77819,-0.23481 8.77078,-0.71871 5.80395,-0.94655 11.84237,-2.82581 17.88397,-5.72037 16.63137,-8.01049 28.06293,-21.80037 28.9903,-34.37785 0.25617,-3.47417 -0.26309,-6.97225 -1.89369,-10.309 z"
           id="path146"
           style="fill:#d40000;stroke-width:2.48062"
           inkscape:original-d="m 501.64996,388.76246 c -4.45742,-8.21719 -13.87587,-12.67438 -25.31006,-12.67438 -8.41081,0 -17.59706,2.48063 -26.55035,7.20919 -16.35676,8.68224 -26.27925,23.29468 -26.27925,35.96913 0,3.4496 0.73642,6.93799 2.48063,10.15505 4.45737,8.17842 13.87599,12.40323 25.31005,12.40323 8.41106,0 17.59707,-2.20927 26.55062,-6.93812 16.35651,-8.68217 26.27898,-23.33336 26.27898,-35.96905 0,-3.48837 -0.73642,-6.938 -2.48062,-10.15505" />
        <path
           class="Note"
           d="m 296.51665,343.9546 c -6.26474,-7.13561 -17.14409,-9.47226 -29.22213,-6.66843 -8.8686,2.05878 -17.91194,6.85986 -25.96459,13.91659 -14.68063,12.91709 -20.31854,30.0202 -16.64713,42.15953 0.99961,3.30515 2.73352,6.42413 5.35204,9.00116 6.6754,6.54055 16.89249,7.939 27.89677,5.0126 8.11331,-2.1576 16.45848,-6.52452 24.17238,-13.15426 14.008,-12.08962 21.38146,-28.43524 18.95677,-40.81429 -0.67015,-3.42139 -2.09404,-6.66078 -4.54411,-9.4529 z"
           id="path148"
           style="fill:#d40000;stroke-width:2.48062"
           inkscape:original-d="m 305.45402,388.76246 c -4.45746,-8.21719 -13.87588,-12.67438 -25.31007,-12.67438 -8.41081,0 -17.59705,2.48063 -26.55036,7.20919 -16.35675,8.68224 -26.27925,23.29468 -26.27925,35.96913 0,3.4496 0.73643,6.93799 2.48063,10.15505 4.4574,8.17842 13.87601,12.40323 25.31007,12.40323 8.41104,0 17.59705,-2.20927 26.55061,-6.93812 16.35649,-8.68217 26.27899,-23.33336 26.27899,-35.96905 0,-3.48837 -0.73656,-6.938 -2.48062,-10.15505" />
        <path
           class="Hook"
           d="m 615.95525,613.75351 c 0.16369,-0.54418 4.21732,-8.01845 4.63759,-8.72667 0.46567,-0.91171 7.85533,-13.44983 19.26846,-24.65814 4.49179,-4.43058 12.96247,-11.66247 21.49639,-18.58051 8.19752,-6.64533 15.43041,-12.16813 15.13075,-12.27452 0,0 5.70496,-4.23441 13.06256,-12.07814 7.26896,-7.74921 16.49514,-19.39014 22.69379,-34.02694 l 2.03295,-5.32403 c 5.34568,-13.99963 11.41754,-34.88547 10.75479,-57.98604 -0.0459,-2.65809 -0.13675,-5.34286 -3.03146,-5.31808 -2.91394,-0.0247 -3.1958,3.05483 -3.43139,5.85216 -1.76277,17.89957 -5.75992,35.3994 -11.9678,52.18279 -7.17401,19.39538 -17.31528,27.16996 -23.49252,32.95861 -22.8412,20.96089 -44.07096,28.57078 -53.22241,29.43098 -1.13438,0.18936 -1.99411,0.94771 -2.34322,2.13898 l -4.33068,14.77743 -11.45394,39.08394 c -0.47998,1.63782 0.1708,3.40674 1.44543,3.78748 0.90458,0.2702 2.30141,-0.36317 2.75077,-1.23928"
           id="path258"
           style="fill:#aa0000;stroke-width:2.48062"
           inkscape:original-d="m 679.74665,648.33483 c 0,-0.50355 2.24809,-8.95347 2.48063,-9.6899 0.2322,-1.0071 4.72871,-15.11635 13.87604,-29.26368 6.70552,-10.42632 30.27139,-40.93038 29.53489,-40.93038 0,0 18.37222,-23.56587 19.6126,-55.58139 v -5.69767 c 0,-15.1551 -1.97687,-36.47281 -10.69774,-58.06226 -0.96916,-2.48076 -1.9768,-4.96138 -4.6901,-3.95347 -2.75177,0.9693 -1.97653,3.95347 -1.24024,6.6667 4.45743,17.40324 6.93805,35.23268 6.93805,53.10087 0,20.85278 -7.44187,31.2791 -11.8993,38.95371 -16.39521,27.51935 -37.7132,40.93025 -48.13959,44.41851 -1.24024,0.50355 -1.97673,1.47299 -1.97673,2.71337 v 15.38757 40.69764 c 0,1.70545 1.47285,3.21718 3.21711,3.21718 1.24025,0 2.75191,-1.00845 2.98445,-1.9768" />
        <path
           class="Hook"
           d="m 523.74116,143.12549 c -0.23483,-0.70986 -2.5826,-9.68208 -2.54958,-10.13526 -0.23691,-1.02822 -2.19942,-1.90965 -3.85818,-2.02665 -2.33004,-0.16434 -4.39687,1.21279 -4.50633,2.91323 l -2.61223,40.57876 -0.98766,15.34256 c -0.0796,1.23601 1.12318,2.28704 2.30166,2.87189 13.10543,4.18661 38.51932,19.92587 54.0455,49.95864 4.31592,8.43303 11.0909,19.63703 8.03366,40.40594 -2.59149,17.60491 -8.42631,35.88966 -15.4736,52.37057 -1.15274,2.61708 -2.25433,4.96384 0.45394,6.31804 2.70072,1.39155 4.02933,-0.40451 5.44761,-2.70676 12.60403,-20.39857 18.7513,-42.12785 21.20672,-57.45677 l 0.74744,-4.66623 c 1.84166,-16.01254 -1.62053,-30.41015 -5.84768,-41.1158 -4.18688,-10.60367 -8.97152,-17.17474 -8.97152,-17.17474 0.44458,0.0593 -5.4035,-8.42088 -12.54067,-18.24438 -7.13717,-9.8235 -15.63978,-20.96387 -19.41385,-26.5547 -10.3038,-15.17819 -15.24532,-29.65072 -15.47522,-30.67834"
           id="path260"
           style="fill:#aa0000;stroke-width:2.48062"
           inkscape:original-d="m 505.97313,200.4665 c -0.23259,-0.73643 -2.48063,-9.41861 -2.48063,-9.9225 -0.23259,-1.00778 -1.74418,-1.7442 -2.98446,-1.7442 -1.74423,0 -3.21708,1.51164 -3.21708,3.21707 v 40.69775 15.38755 c 0,1.24038 1.00776,2.2095 1.97673,2.71332 10.42638,3.21712 32.01549,16.89925 48.13954,44.41856 4.45746,7.67455 11.6669,18.10086 11.6669,38.95373 0,17.86818 -2.75201,36.7053 -7.20942,54.06967 -0.73656,2.752 -1.47276,5.23263 1.24024,6.20155 2.7133,1.00791 3.7209,-0.96889 4.7288,-3.44955 8.91462,-21.8605 11.16282,-44.68994 11.16282,-60.0388 v -4.72881 C 567.75619,294.22641 549.384,270.66047 549.384,270.66047 c 0.73642,0 -22.8294,-30.50399 -29.53493,-40.93029 -9.14723,-14.14738 -13.64337,-28.25593 -13.87593,-29.26368" />
        <path
           class="Hook"
           d="m 295.48463,611.42667 c -0.16123,-0.54796 -0.88924,-9.00859 -0.92882,-9.83327 -0.11197,-1.01718 -0.85115,-15.54314 2.42189,-31.12082 1.27826,-6.14971 4.29251,-16.79135 7.54178,-27.19987 3.12066,-9.99657 6.07258,-18.52262 5.77163,-18.45163 0,0 2.38887,-6.62329 4.22777,-17.16845 1.8123,-10.39258 3.19553,-25.19117 0.51731,-40.82766 l -1.15855,-5.5783 c -3.0406,-14.64016 -9.15637,-35.56735 -22.14607,-54.62091 -1.47071,-2.21087 -2.99572,-4.42076 -5.40407,-2.83539 -2.45112,1.5542 -1.02386,4.29194 0.29079,6.77399 8.19151,16.0048 14.25281,32.88094 18.10593,50.35423 4.44572,20.16067 0.26196,32.20078 -1.69951,40.36524 -7.51736,29.9288 -20.7063,47.76039 -27.82378,53.5019 -0.83195,0.7766 -1.12868,1.88025 -0.76934,3.06838 l 4.45733,14.7379 11.78891,38.97937 c 0.49402,1.63345 1.98438,2.76151 3.23124,2.38803 0.88507,-0.2651 1.68213,-1.55437 1.57551,-2.53273"
           id="path262"
           style="fill:#aa0000;stroke-width:2.48062"
           inkscape:original-d="m 233.5159,648.33483 c 0,-0.50355 2.24808,-8.95347 2.48063,-9.6899 0.2326,-1.0071 4.7287,-15.11635 13.87599,-29.26368 6.7055,-10.42632 30.27143,-40.93038 29.53493,-40.93038 0,0 18.37224,-23.56587 19.61256,-55.58139 v -5.69767 c 0,-15.1551 -1.97681,-36.47281 -10.69769,-58.06226 -0.96916,-2.48076 -1.97681,-4.96138 -4.69011,-3.95347 -2.75176,0.9693 -1.97657,3.95347 -1.24038,6.6667 4.45743,17.40324 6.93806,35.23268 6.93806,53.10087 0,20.85278 -7.44188,31.2791 -11.89931,38.95371 -16.3952,27.51935 -37.71318,40.93025 -48.13955,44.41851 -1.24038,0.50355 -1.97676,1.47299 -1.97676,2.71337 v 15.38757 40.69764 c 0,1.70545 1.47288,3.21718 3.21708,3.21718 1.24038,0 2.75194,-1.00845 2.98449,-1.9768" />
      </g>
    </g>
  </g>
</svg>
